<svg xmlns="http://www.w3.org/2000/svg" xml:space="preserve" width="800" height="800" viewBox="0 0 35.29 35.289">
    <path fill="white" d="M30.719 14.977a6.321 6.321 0 0 1-.131 1.898c-.055.32-.169.637-.312.967-.155.322-.34.667-.75.98l-.459.35-.448-.398c-.361-.319-.615-.966-1.028-1.164-.088-.072-.197.006-.085.055.095.013.122.031.179.121.114.16.312.371.354.606l.104.58-.396.287a2.76 2.76 0 0 1-1.305.523c-.512.073-1.153-.134-1.518-.511-.384-.364-.546-.766-.665-1.141a6.366 6.366 0 0 1-.198-1.088l-.017-.131.011-.029a.682.682 0 0 0-.007-.287c-.021-.082-.036-.111-.089-.154a.544.544 0 0 0-.318-.08 7.25 7.25 0 0 1-.646-.022c-.858-.093-1.702-.281-2.472-.67-.389-.189-.726-.455-1.092-.685-.359-.24-.742-.49-1.056-.824a4.536 4.536 0 0 1-.757-1.125c-.027-.047-.04-.096-.063-.143l-.206.143c-.338.215-.66.453-.991.685a10.293 10.293 0 0 0-1.772 1.635 8.967 8.967 0 0 0-.718.978 6.977 6.977 0 0 0-.562 1.082c-.157.381-.295.77-.383 1.182-.13.404-.123.83-.192 1.258l-.182.011c-.106-.858-.188-1.778.028-2.668.084-.447.225-.887.388-1.313.166-.431.365-.847.606-1.24a11.691 11.691 0 0 1 1.708-2.17c.322-.33.677-.627 1.049-.901.384-.271.76-.494 1.244-.679l1.096-.416.081 1.004v.002c.064.343.066.718.175 1.05.063.354.226.664.351 1.004.154.324.32.664.574.944.27.265.609.438.957.576.698.265 1.459.414 2.207.349.207-.015.326-.031.557-.068.246-.039.549-.035.861.088a1.4 1.4 0 0 1 .73.688c.138.303.193.545.191.894l-.004-.16c.133.555.389 1.135.613 1.285.107.073.141.069.271.051.055-.017.123-.041.192-.075.029-.127.054-.254.104-.396.072-.188.164-.481.484-.655.34-.147.56-.029.739-.033.406.099.792.188 1.147.33.113-.231.229-.533.322-.826.146-.473.266-.989.404-1.485-.964-1.752-2.314-3.336-3.68-4.867-.715-.789-1.521-1.49-2.305-2.211a69.369 69.369 0 0 0-2.406-2.092l-.15-.104-.039-.324a3.904 3.904 0 0 0-.919-2.125 4.572 4.572 0 0 0-.89-.788 1.235 1.235 0 0 0-.061-.037c-.033.338-.061.684-.084 1.022a39.121 39.121 0 0 0-.104 2.271l-.012.523-.458.186c-.716.291-1.438.607-2.079 1.072-.643.451-1.284.938-1.842 1.521a15.588 15.588 0 0 0-2.829 4.02l-.173-.057a12.317 12.317 0 0 1 2.23-4.631c.935-1.275 2.211-2.313 3.654-3.063a38.258 38.258 0 0 1-.025-1.918c.037-.805.056-1.582.254-2.467L17.93 0l.903.392c.296.129.503.242.736.385.227.138.447.281.65.451.411.336.786.726 1.104 1.164.61.803.885 1.86.823 2.844 1.518 1.42 2.93 2.916 4.34 4.427 1.512 1.539 2.949 3.149 4.162 5.024l.076.117-.009.18v-.001h.003v-.006zm-10.152 9.507c-.151-.407-.363-.786-.547-1.176a20.28 20.28 0 0 1-.944-3.108 8.164 8.164 0 0 1-.202-1.612c.002-.531.051-1.086.352-1.529l-.14-.116c-.431.43-.604 1.04-.684 1.614-.083.58-.08 1.164-.046 1.742.072 1.16.309 2.271.611 3.401l.024.06c.125.381.283.75.381 1.135.098.387.195.77.25 1.156a8.98 8.98 0 0 1 .113 2.336 9.566 9.566 0 0 1-.444 2.287c-.024.073-.06.145-.083.215l-.154-.379a47.593 47.593 0 0 0-1.207-2.302c-.489-.724-.879-1.506-1.459-2.17l-.814-1.028-.908-.957a16.01 16.01 0 0 0-1.99-1.732c-.364-.252-.7-.539-1.092-.75-.388-.219-.746-.479-1.159-.65-.799-.383-1.623-.723-2.489-.938-.427-.12-.867-.204-1.31-.271a8.054 8.054 0 0 0-.761-.068c-.08-1.158-.042-2.333.228-3.481.281-1.35.887-2.623 1.598-3.813a14.217 14.217 0 0 1 2.713-3.158c1.046-.901 2.206-1.733 3.369-2.362l1.97-1.066-2.324-.166c-.919-.066-1.859-.039-2.777.172a9.947 9.947 0 0 0-2.64 1.004c-.401.256-.816.488-1.167.814-.363.301-.7.635-1.001.994a5.738 5.738 0 0 0-1.287 2.44l.168.072c.52-.707 1.172-1.269 1.819-1.785.659-.508 1.398-.877 2.132-1.219.386-.134.752-.304 1.147-.412.382-.142.79-.201 1.185-.308.038-.01.079-.014.117-.021-.434.412-.858.834-1.262 1.281-.964 1.071-1.861 2.202-2.632 3.418-1.569 2.403-2.579 5.262-2.583 8.25l-.001.543.647.047a7.36 7.36 0 0 1 1.108.178c.38.084.761.181 1.131.314.749.236 1.46.592 2.146.975.352.179.668.423 1.004.627.341.197.632.474.95.707.619.49 1.197 1.041 1.73 1.63l.79.896.708.969c.495.627.869 1.35 1.314 2.016.401.699.74 1.438 1.135 2.143l.985 2.23.757 1.717.896-1.545c.271-.465.445-.85.615-1.289.16-.428.293-.861.404-1.305.223-.881.338-1.789.339-2.695a10.52 10.52 0 0 0-.313-2.686c-.088-.449-.264-.867-.416-1.286zm3.308-13.991c.25-.269-.144-.767-.7-1.306-.557-.536-1.208-.916-1.208-.916s.187 1.48.744 2.017.914.472 1.164.205z"/>
</svg>